<svg id="Laag_1" data-name="Laag 1" xmlns="http://www.w3.org/2000/svg" viewBox="0 0 183.93 182.07"><defs><style>.cls-1{fill:#eb525a;fill-rule:evenodd;}.cls-2{fill:#f9d966;stroke:#f9d966;stroke-width:2px;}</style></defs><path d="M148.24,159.1h41.41l-2-6.54q-7.41-23.53-12.2-39.45Q170.92,97,169.82,92.84L169,88.48q-2,10.89-18.75,64.3Zm58.85,55.8-10.46-33.35H141.05L130.59,214.9H101.81L151.51,68H187l49.7,146.91Z" transform="translate(-77.31 -50.41)"/><path class="cls-1" d="M151.51,68H187l49.7,146.91H207.09l-10.46-33.35H141.05L130.59,214.9H101.81ZM169,88.48l.87,4.36q1.1,4.14,5.67,20.27,1.23,4.1,2.64,8.69,2.73,8.91,6.1,19.72,1.65,5.29,3.46,11l2,6.54H148.24l2-6.32q1.86-5.9,3.52-11.26,3.39-10.9,6-19.68c.46-1.51.9-3,1.32-4.39l.08-.28q4.77-15.94,6.71-23.82l0-.13C168.38,91.26,168.73,89.67,169,88.48ZM154,199.13l-10.47,33.35H77.31L138.9,50.41h60.75l61.59,182.07H194.18l-10.46-33.35Z" transform="translate(-77.31 -50.41)"/><path class="cls-2" d="M167.17,101.1q1-3.75,1.75-6.57.63,2.32,1.81,6.55,1.38,4.9,3.5,12.38h0q4.78,15.93,12.2,39.46h0l1.45,4.84H150l1.44-4.62h0Q162.55,117.86,167.17,101.1ZM155,152.85l-.53,1.7h29.12l-.53-1.7q-7.19-22.84-11.88-38.43h0v-.07h0c-.32-1.11-.62-2.17-.91-3.19L169,106.78l-1.27,4.37Q163.06,127.05,155,152.85ZM193.57,187l-.28-.92h-48.9l-.29.92-10.17,32.43H95.47l52.77-156h42.07l52.77,156H203.75Zm12.28,28.27.28.92h32.43l-.59-1.73L188.28,67.57l-.3-.89H150.57l-.3.89L100.58,214.48l-.59,1.73h31.55l.29-.92L142,182.86h53.66Z" transform="translate(-77.31 -50.41)"/></svg>