<svg id="Laag_1" data-name="Laag 1" xmlns="http://www.w3.org/2000/svg" viewBox="0 0 668.6 182.07" width="2552px" height="498px"><defs><style>.cls-1{fill:#000;}.cls-2{fill:#eb525a;fill-rule:evenodd;}.cls-3{fill:#f9d966;stroke:#f9d966;stroke-width:2px;}</style></defs><path class="cls-1" d="M362.65,162.22h29.42l-1.27-4.36q-5.26-17.81-8.72-30.33-3.25-12.52-4-16.16l-.73-3.63q-1.46,10-13.43,50.12Zm43.59,47.57-7.45-25.06H355.94l-7.45,25.06H319.25L360.11,87.4h35.23L436.2,209.79Zm106.53-92.06v18.34l-40.32,53.2H515v20.52H442.49V190.73l40.31-52.67H444.13V117.73ZM573.37,172h-8.53q-6.72,0-10.36,2.91a9.11,9.11,0,0,0-3.63,7.44q0,9.27,10.72,9.26,5.63,0,8.71-3.45t3.09-9.44Zm-43-26V122.27q10.9-6.18,31.42-6.18,19.61,0,29.23,8.54,9.63,8.35,9.63,26.15v59h-26V198.53q-5.8,11.81-22.88,11.81-13.44,0-21.06-7.63-7.46-7.62-7.45-19.07,0-13.24,9.63-20.52,9.79-7.44,28.87-7.44h11.62v-6.36q0-11.62-15.44-11.62A49.37,49.37,0,0,0,530.33,146.05ZM642.71,81.41v51.93q7.08-16.52,27.6-16.52,13.44,0,21.79,8.53,8.53,8.53,8.54,25.79v58.65H674.13V155.32q0-8-4-12.53a13.12,13.12,0,0,0-10.35-4.54,15.69,15.69,0,0,0-5.27.9,18,18,0,0,0-5.26,2.91q-2.91,2-4.72,7.08a34.69,34.69,0,0,0-1.82,12v48.66H616.2V81.41Zm74.51,128.38V117.73h26.51v92.06Zm2.36-107.86a15.34,15.34,0,1,1,10.89,4.54A14.86,14.86,0,0,1,719.58,101.93Z" transform="translate(-77.31 -50.41)"/><path d="M148.24,159.1h41.41l-2-6.54q-7.41-23.53-12.2-39.45Q170.92,97,169.82,92.84L169,88.48q-2,10.89-18.75,64.3Zm58.85,55.8-10.46-33.35H141.05L130.59,214.9H101.81L151.51,68H187l49.7,146.91Z" transform="translate(-77.31 -50.41)"/><path class="cls-2" d="M151.51,68H187l49.7,146.91H207.09l-10.46-33.35H141.05L130.59,214.9H101.81ZM169,88.48l.87,4.36q1.1,4.14,5.67,20.27,1.23,4.1,2.64,8.69,2.73,8.91,6.1,19.72,1.65,5.29,3.46,11l2,6.54H148.24l2-6.32q1.86-5.9,3.52-11.26,3.39-10.9,6-19.68c.46-1.51.9-3,1.32-4.39l.08-.28q4.77-15.94,6.71-23.82l0-.13C168.38,91.26,168.73,89.67,169,88.48ZM154,199.13l-10.47,33.35H77.31L138.9,50.41h60.75l61.59,182.07H194.18l-10.46-33.35Z" transform="translate(-77.31 -50.41)"/><path class="cls-3" d="M167.17,101.1q1-3.75,1.75-6.57.63,2.32,1.81,6.55,1.38,4.9,3.5,12.38h0q4.78,15.93,12.2,39.46h0l1.45,4.84H150l1.44-4.62h0Q162.55,117.86,167.17,101.1ZM155,152.85l-.53,1.7h29.12l-.53-1.7q-7.19-22.84-11.88-38.43h0v-.07h0c-.32-1.11-.62-2.17-.91-3.19L169,106.78l-1.27,4.37Q163.06,127.05,155,152.85ZM193.57,187l-.28-.92h-48.9l-.29.92-10.17,32.43H95.47l52.77-156h42.07l52.77,156H203.75Zm12.28,28.27.28.92h32.43l-.59-1.73L188.28,67.57l-.3-.89H150.57l-.3.89L100.58,214.48l-.59,1.73h31.55l.29-.92L142,182.86h53.66Z" transform="translate(-77.31 -50.41)"/></svg>